<!--?xml version="1.0" standalone="no"?-->
              <svg id="sw-js-blob-svg" viewBox="0 0 100 100" xmlns="http://www.w3.org/2000/svg" version="1.1">
                    <defs> 
                        <linearGradient id="sw-gradient" x1="0" x2="1" y1="1" y2="0">
                            <stop id="stop1" stop-color="rgba(26, 115, 232, 1)" offset="0%"></stop>
                            <stop id="stop2" stop-color="rgba(198.136, 106.263, 255, 1)" offset="100%"></stop>
                        </linearGradient>
                    </defs>
                <path fill="url(#sw-gradient)" d="M23.9,-26.9C30.8,-22.8,35.8,-15,36.1,-7.3C36.3,0.4,31.8,8.1,26.6,13.9C21.5,19.8,15.8,23.9,9,27.5C2.2,31.2,-5.7,34.4,-14.6,33.9C-23.4,33.3,-33.1,29,-37.6,21.6C-42.1,14.1,-41.3,3.5,-38.7,-6.1C-36.2,-15.7,-31.8,-24.2,-25,-28.2C-18.3,-32.3,-9.1,-31.9,-0.3,-31.6C8.6,-31.3,17.1,-30.9,23.9,-26.9Z" width="100%" height="100%" transform="translate(50 50)" stroke-width="0" style="transition: 0.3s;" stroke="url(#sw-gradient)"></path>
              </svg>